# xmcd CD database file
#
# Track frame offsets:
#	150
#	35320
#	60912
#	87425
#	122470
#	148292
#	179680
#	210472
#	228377
#	255950
#	273725
#
# Disc length: 4246 seconds
#
# Revision: 0
# Processed by: cddbd v1.5.1PL0 Copyright (c) Steve Scherf et al.
# Submitted via: CDex 1.51
#
DISCID=9810940b
DTITLE=Stanley Turrentine - the blue note years
DYEAR=1900
DGENRE=Jazz
TTITLE0=One o'clock jump
TTITLE1=Alone together
TTITLE2=Manha de carnaval
TTITLE3=Someone to watch over me
TTITLE4=The way you look tonight
TTITLE5=Yesterdays
TTITLE6=Cant' buy me love
TTITLE7=God bless the child
TTITLE8=More than you know
TTITLE9=A taste of honey
TTITLE10=Willow weep for me
EXTD=
EXTT0=
EXTT1=
EXTT2=
EXTT3=
EXTT4=
EXTT5=
EXTT6=
EXTT7=
EXTT8=
EXTT9=
EXTT10=
PLAYORDER=
